<svg id="clock_1_" data-name="clock(1)" xmlns="http://www.w3.org/2000/svg" width="22.274" height="22.274" viewBox="0 0 22.274 22.274">
  <path id="Path_16068" data-name="Path 16068" d="M19.931,5.861A.928.928,0,0,0,19.5,7.1a9.186,9.186,0,0,1,.919,4.037,9.281,9.281,0,1,1-9.281-9.281,9.169,9.169,0,0,1,5.762,2,.928.928,0,1,0,1.155-1.453,11.139,11.139,0,1,0,4.221,8.732,11.024,11.024,0,0,0-1.1-4.845A.927.927,0,0,0,19.931,5.861Zm0,0" fill="#ffb84d"/>
  <path id="Path_16069" data-name="Path 16069" d="M176.928,64a.928.928,0,0,0-.928.928v6.5a.928.928,0,0,0,.928.928h4.641a.928.928,0,1,0,0-1.856h-3.712V64.928A.928.928,0,0,0,176.928,64Zm0,0" transform="translate(-165.791 -60.288)" fill="#ffb84d"/>
</svg>
