<svg xmlns="http://www.w3.org/2000/svg" width="33.628" height="30.213" viewBox="0 0 33.628 30.213">
  <g id="Group_3194" data-name="Group 3194" transform="translate(-616.252 -1297)">
    <path id="add" d="M29.687,0H3.941A3.945,3.945,0,0,0,0,3.941V20.755A3.945,3.945,0,0,0,3.941,24.7H17.274V22.069H3.941a1.315,1.315,0,0,1-1.314-1.314V4.746L16.814,15.3,31,4.746v14.7h2.627V3.941A3.945,3.945,0,0,0,29.687,0ZM4.18,2.627H29.448l-12.634,9.4Z" transform="translate(616.252 1297)" fill="#606060"/>
    <path id="add-2" data-name="add" d="M28.111,22.069h5.517V24.7H28.111v5.517H25.484V24.7H19.967V22.069h5.517V16.551h2.627Zm0,0" transform="translate(616.252 1297)" fill="#606060"/>
  </g>
</svg>
