<svg xmlns="http://www.w3.org/2000/svg" width="34.279" height="29.238" viewBox="0 0 34.279 29.238">
  <g id="Group_3195" data-name="Group 3195" transform="translate(-950.001 -1299.314)">
    <path id="phone" d="M18.117,19.114a21.755,21.755,0,0,1-4.587-3.55,22.1,22.1,0,0,1-3.571-4.609l3.083-3.123L5.256,0,1.421,3.81A4.825,4.825,0,0,0,.481,9.325a42.341,42.341,0,0,0,8.131,11.3,42.341,42.341,0,0,0,11.3,8.131A4.776,4.776,0,0,0,22,29.238a4.841,4.841,0,0,0,3.424-1.42l3.818-3.831L21.3,16.03Zm5.7,7.09a2.541,2.541,0,0,1-2.9.5,40.03,40.03,0,0,1-10.684-7.692A40.03,40.03,0,0,1,2.535,8.328a2.539,2.539,0,0,1,.5-2.9l2.214-2.2,4.582,4.61L7.2,10.5l.317.712a22.1,22.1,0,0,0,4.4,5.968,21.715,21.715,0,0,0,5.946,4.372l.7.309,2.711-2.625,4.746,4.754Z" transform="translate(950 1299.314)" fill="#606060"/>
    <path id="phone-2" data-name="phone" d="M21.11,10.754,15.737,5.381,21.11.008l1.614,1.614-2.56,2.56h5.677a3.432,3.432,0,0,1,3.431,3.425l.007,5.991L27,13.6l-.007-5.993a1.146,1.146,0,0,0-1.148-1.143H20.05L22.724,9.14Zm0,0" transform="translate(955 1300.314)" fill="#606060"/>
  </g>
</svg>
