<svg xmlns="http://www.w3.org/2000/svg" width="57.702" height="80.399" viewBox="0 0 57.702 80.399">
  <g id="Group_7194" data-name="Group 7194" transform="translate(2173.814 -4749.197)">
    <g id="popcorn" transform="translate(-2173.814 4749.197)">
      <g id="Group_7178" data-name="Group 7178" transform="translate(0 0)">
        <g id="Group_7177" data-name="Group 7177">
          <path id="Path_16077" data-name="Path 16077" d="M149.392,91.215a4.752,4.752,0,0,0-.485-2.086,4.741,4.741,0,0,0-3.316-6.735,4.734,4.734,0,0,0-6.389-6.137,6.213,6.213,0,0,0-5.516-1.6,4.722,4.722,0,0,0-1.249-.892,5.145,5.145,0,0,0-6.992-7.537,5.157,5.157,0,0,0-4.462.551,5.144,5.144,0,0,0-8.57,4.779,4.747,4.747,0,0,0-3.834,4.076,5.6,5.6,0,0,0-4.846.881,4.737,4.737,0,0,0-6.18,4.985,4.748,4.748,0,0,0-.511,5.146,5.144,5.144,0,0,0-3.532,8.57A8.139,8.139,0,0,0,91.717,101L99.055,145.4h42.218l7.325-44.3.014-.11a8.135,8.135,0,0,0-.967-4.548,5.2,5.2,0,0,0,.167-1.285q0-.2-.017-.4A4.741,4.741,0,0,0,149.392,91.215Zm-48.048,51.49h0L94.4,100.725a5.416,5.416,0,0,1,5.4-5.8h.056a5.4,5.4,0,0,1,5.412,5.207v.027l.013.163q0,.165.006.33l3.34,42.055Zm9.995,0-3.354-42.479a5.416,5.416,0,0,1,5.415-5.3,5.422,5.422,0,0,1,5.416,5.416v42.367Zm10.175,0h0V100.338a5.416,5.416,0,0,1,9.318-3.755,5.364,5.364,0,0,1,1.512,3.644l-3.354,42.479Zm24.413-41.98-6.942,41.98H131.7l3.337-42,0-.055q.006-.166.006-.331l.011-.135,0-.054a5.4,5.4,0,0,1,5.412-5.207h.056a5.416,5.416,0,0,1,5.4,5.8Zm-.276-7.733-.828.466a8.133,8.133,0,0,0-4.3-1.234h-.056a8.089,8.089,0,0,0-6.773,3.631,8.241,8.241,0,0,0-.92-1.143,8.111,8.111,0,0,0-12.611,1.15,8.111,8.111,0,0,0-12.611-1.15,8.232,8.232,0,0,0-.92,1.143,8.089,8.089,0,0,0-6.773-3.631H99.8a8.134,8.134,0,0,0-4.265,1.213,2.448,2.448,0,0,1,3.074-3.746l1.039.633.737-.968a2.473,2.473,0,0,1,.586-.552l2.3-1.559-2.65-.844a2.037,2.037,0,0,1-.73-3.465l.631-.56-.227-.813a2.039,2.039,0,0,1,3.022-2.288l1.04.635.737-.971a2.4,2.4,0,0,1,1.738-.812,3.612,3.612,0,0,1,2.592,1.033,4.138,4.138,0,0,0,.453.337l1.049.635.725-.974.661-.869-.642-.819a2.017,2.017,0,0,1-.434-1.256,2.04,2.04,0,0,1,2.016-2.038l.76.043.434-.565a2.43,2.43,0,0,1,.416-.426l.849-.671-.471-.974a2.447,2.447,0,0,1,4.228-2.439,2.3,2.3,0,0,1,.133.225l.962,1.844,1.291-1.631a2.448,2.448,0,0,1,3.192-.577l1.038.633.737-.967a2.447,2.447,0,1,1,3.148,3.611l-.946.531.316,1.038a2.5,2.5,0,0,1,.109.7c0,.036,0,.072,0,.11v1.181l1.171.156a2.033,2.033,0,0,1,1.445.925l.59.923,1.024-.388a3.507,3.507,0,0,1,4.147,1.331l.874,1.3,1.158-1.061a2.037,2.037,0,1,1,2.375,3.276l-.953.537.328,1.044a1.851,1.851,0,0,1,.069.339l.232,2,1.763-.979a2.038,2.038,0,0,1,2.588,3.041l-.654.834.655.832a2.008,2.008,0,0,1,.432,1.254A2.044,2.044,0,0,1,145.651,92.992Z" transform="translate(-91.69 -65.005)" fill="#ffb84d"/>
        </g>
      </g>
    </g>
    <g id="next" transform="translate(-2154.411 4773.158) rotate(-90)">
      <g id="Group_7193" data-name="Group 7193" transform="translate(0 0)">
        <path id="Path_16080" data-name="Path 16080" d="M12.441,11.147,1.549.255A.908.908,0,0,0,.266,1.538l10.25,10.25L.266,22.039a.908.908,0,0,0,1.283,1.283L12.441,12.43A.908.908,0,0,0,12.441,11.147Z" fill="#ffb84d"/>
      </g>
    </g>
  </g>
</svg>
