<svg id="pointed-star" xmlns="http://www.w3.org/2000/svg" width="20.312" height="19.325" viewBox="0 0 20.312 19.325">
  <path id="Path_8" data-name="Path 8" d="M13.011,17.181a.6.6,0,0,1-.532-.387l-2.2-6.76c-.07-.213-.182-.213-.251,0l-2.2,6.76a.6.6,0,0,1-.532.387H.194c-.224,0-.259.107-.078.239L5.867,21.6a.6.6,0,0,1,.2.626l-2.2,6.76c-.07.213.022.28.2.148l5.75-4.177a.6.6,0,0,1,.658,0l5.75,4.178c.182.132.273.066.2-.148l-2.2-6.76a.6.6,0,0,1,.2-.626L20.2,17.42c.182-.132.147-.239-.078-.239H13.011Z" transform="translate(0 -9.874)" fill="#ffb84d"/>
</svg>
